<?xml version="1.0" ?><!DOCTYPE svg  PUBLIC '-//W3C//DTD SVG 1.1//EN'  'http://www.w3.org/Graphics/SVG/1.1/DTD/svg11.dtd'><svg enable-background="new 0 0 128 128" id="Слой_1" version="1.1" viewBox="0 0 128 128" xml:space="preserve" xmlns="http://www.w3.org/2000/svg" xmlns:xlink="http://www.w3.org/1999/xlink"><g><g><g><circle cx="64" cy="64" fill="#6BAF76" r="62"/></g><g><g><path d="M55.016,90.555c-0.043,0-0.753,8.251-0.771,8.398c-0.135,1.115-0.339,1.791-0.893,2.286      c-0.193,0.173-0.392,0.243-0.582,0.392c-0.434,0.34-0.842,0.544-1.384,0.849c-0.38,0.214-0.88,1.001-0.413,1.207      c0.708,0.312,2.506,0.833,4.527,0.833c1.528,0,5.603,0,7.5,0c0.611,0,1,0,1,0c2.1,0,6.933,0,8.5,0      c2.021,0,3.818-0.544,4.527-0.857c0.467-0.206-0.033-0.891-0.413-1.105c-0.542-0.305-0.95-0.618-1.384-0.959      c-0.189-0.148-0.388-0.344-0.582-0.517c-0.554-0.496-0.758-1-0.893-2.115c-0.018-0.146-0.786-8.878-0.782-8.413" fill="#DCDDDF"/></g><g><path d="M72.5,105.02h-17c-2.169,0-4.042-0.573-4.729-0.876c-0.293-0.129-0.471-0.387-0.486-0.707      c-0.025-0.522,0.431-1.153,0.856-1.393l0.291-0.162c0.396-0.219,0.708-0.393,1.03-0.645c0.101-0.08,0.205-0.143,0.311-0.205      c0.082-0.048,0.165-0.094,0.246-0.166c0.406-0.364,0.597-0.881,0.729-1.974c0.006-0.054,0.053-0.585,0.12-1.354      c0.657-7.483,0.657-7.483,1.147-7.483c0.276,0,0.5,0.224,0.5,0.5c0,0.043-0.005,0.085-0.016,0.125      c-0.065,0.453-0.464,4.991-0.636,6.947c-0.07,0.801-0.119,1.349-0.123,1.386c-0.139,1.146-0.364,1.979-1.056,2.6      c-0.134,0.12-0.27,0.203-0.405,0.283c-0.067,0.04-0.135,0.078-0.201,0.129c-0.386,0.303-0.746,0.502-1.163,0.733l-0.285,0.159      c-0.111,0.063-0.251,0.242-0.314,0.373c0.791,0.314,2.438,0.731,4.182,0.731h17c1.807,0,3.414-0.452,4.155-0.744      c-0.067-0.101-0.181-0.223-0.286-0.283c-0.56-0.315-0.969-0.626-1.447-1c-0.14-0.11-0.284-0.242-0.428-0.375l-0.179-0.164      c-0.723-0.647-0.923-1.325-1.057-2.427c-0.004-0.038-0.06-0.65-0.138-1.53c-0.183-2.041-0.554-6.192-0.627-6.803      c-0.013-0.043-0.02-0.089-0.02-0.136c-0.002-0.269,0.209-0.509,0.477-0.521c0.208-0.011,0.332-0.017,0.451,0.511l0.072,0.002      c0,0.065-0.011,0.128-0.034,0.185c0.155,0.841,0.319,2.678,0.677,6.674c0.076,0.848,0.129,1.442,0.135,1.502      c0.134,1.105,0.325,1.437,0.73,1.799l0.19,0.173c0.124,0.114,0.248,0.229,0.368,0.324c0.443,0.347,0.822,0.635,1.32,0.916      c0.36,0.203,0.882,0.759,0.855,1.308c-0.015,0.309-0.192,0.561-0.486,0.69C76.471,104.455,74.623,105.02,72.5,105.02z" fill="#323638"/></g><g><path d="M105.5,82.48V34.647c0-1.197-0.952-2.167-2.127-2.167H24.627c-1.175,0-2.127,0.97-2.127,2.167V82.48" fill="#323638"/></g><g><rect fill="#F4CE2C" height="43.427" width="76.415" x="25.793" y="35.767"/></g><g><path d="M22.5,82.405v5.989c0,1.193,0.952,2.161,2.127,2.161h78.747c1.175,0,2.127-0.967,2.127-2.161v-5.989" fill="#DCDDDF"/></g><g><path d="M103.374,91.055H24.626c-1.448,0-2.626-1.193-2.626-2.661V34.647c0-1.471,1.178-2.667,2.626-2.667      h78.747c1.448,0,2.626,1.196,2.626,2.667v53.747C106,89.861,104.822,91.055,103.374,91.055z M24.626,32.98      c-0.897,0-1.626,0.748-1.626,1.667v53.747c0,0.916,0.729,1.661,1.626,1.661h78.747c0.897,0,1.626-0.745,1.626-1.661V34.647      c0-0.919-0.729-1.667-1.626-1.667H24.626z" fill="#323638"/></g><g><circle cx="63.911" cy="86.536" fill="#323638" r="2"/></g></g></g></g></svg>